HIERARCHY
ROOT Hips
{
	OFFSET 0.000000 83.214638 0.000000
	CHANNELS 6 Xposition Yposition Zposition Xrotation Yrotation Zrotation
	JOINT Pelvis
	{
		OFFSET 0.000000 0.000000 0.000000
		CHANNELS 3 Xrotation Yrotation Zrotation
		JOINT LeftUpLeg
		{
			OFFSET 8.479700 -4.795502 -0.379100
			CHANNELS 3 Xrotation Yrotation Zrotation
			JOINT LeftLeg
			{
				OFFSET 0.024144 -32.555107 0.112900
				CHANNELS 3 Xrotation Yrotation Zrotation
				JOINT LeftFoot
				{
					OFFSET -0.024144 -32.638630 -3.012600
					CHANNELS 3 Xrotation Yrotation Zrotation
					JOINT LeftToeBase
					{
						OFFSET 0.970200 -13.225400 11.864200
						CHANNELS 3 Xrotation Yrotation Zrotation
						End Site
						{
							OFFSET 0.000000 12.319262 0.000000
						}
					}
					JOINT LFootTongue
					{
						OFFSET 1.142400 -1.059800 6.665200
						CHANNELS 3 Xrotation Yrotation Zrotation
						End Site
						{
							OFFSET 0.000000 12.319262 0.000000
						}
					}
				}
				JOINT LeftPantLeg
				{
					OFFSET 0.918482 -16.533964 -2.284700
					CHANNELS 3 Xrotation Yrotation Zrotation
					End Site
					{
						OFFSET 0.350399 24.744368 0.000000
					}
				}
			}
		}
		JOINT RightUpLeg
		{
			OFFSET -8.479700 -4.795502 -0.379100
			CHANNELS 3 Xrotation Yrotation Zrotation
			JOINT RightLeg
			{
				OFFSET -0.023144 -32.555092 0.112900
				CHANNELS 3 Xrotation Yrotation Zrotation
				JOINT RightFoot
				{
					OFFSET 0.023144 -32.638641 -3.012700
					CHANNELS 3 Xrotation Yrotation Zrotation
					JOINT RightToeBase
					{
						OFFSET -0.970200 -13.225400 11.864200
						CHANNELS 3 Xrotation Yrotation Zrotation
						End Site
						{
							OFFSET 0.000000 12.319244 0.000000
						}
					}
					JOINT RFootTongue
					{
						OFFSET -1.142200 -1.059800 6.665200
						CHANNELS 3 Xrotation Yrotation Zrotation
						End Site
						{
							OFFSET 0.000000 12.319243 0.000000
						}
					}
				}
				JOINT RightPantLeg
				{
					OFFSET -0.919482 -16.533978 -2.284800
					CHANNELS 3 Xrotation Yrotation Zrotation
					End Site
					{
						OFFSET -0.350400 24.744419 0.000000
					}
				}
			}
		}
	}
	JOINT Spine
	{
		OFFSET 0.000000 7.722000 1.166200
		CHANNELS 3 Xrotation Yrotation Zrotation
		JOINT Spine1
		{
			OFFSET 0.000000 12.024101 0.248800
			CHANNELS 3 Xrotation Yrotation Zrotation
			JOINT Spine2
			{
				OFFSET 0.000000 11.502998 -0.491200
				CHANNELS 3 Xrotation Yrotation Zrotation
				JOINT Neck
				{
					OFFSET 0.000000 18.430702 -3.123100
					CHANNELS 3 Xrotation Yrotation Zrotation
					JOINT Head
					{
						OFFSET 0.000000 9.051102 1.034000
						CHANNELS 3 Xrotation Yrotation Zrotation
						JOINT HairB
						{
							OFFSET 0.208400 24.786102 24.822300
							CHANNELS 3 Xrotation Yrotation Zrotation
							End Site
							{
								OFFSET 0.000000 32.263779 0.000000
							}
						}
						JOINT HairA
						{
							OFFSET -7.081100 24.428299 23.196600
							CHANNELS 3 Xrotation Yrotation Zrotation
							End Site
							{
								OFFSET 0.000000 32.263779 0.000000
							}
						}
						JOINT Hat
						{
							OFFSET 16.728800 15.048294 -15.439601
							CHANNELS 3 Xrotation Yrotation Zrotation
							End Site
							{
								OFFSET 0.000000 32.263779 0.000000
							}
						}
					}
				}
				JOINT LeftShoulder
				{
					OFFSET 6.197800 13.665199 -4.064700
					CHANNELS 3 Xrotation Yrotation Zrotation
					JOINT LeftArm
					{
						OFFSET 7.778100 -0.187103 -1.709300
						CHANNELS 3 Xrotation Yrotation Zrotation
						JOINT LeftForeArm
						{
							OFFSET 22.049376 0.000000 0.000000
							CHANNELS 3 Xrotation Yrotation Zrotation
							JOINT LeftHand
							{
								OFFSET 23.009392 0.000000 0.000000
								CHANNELS 3 Xrotation Yrotation Zrotation
								JOINT LeftHandThumb1
								{
									OFFSET 3.507191 -2.063065 3.133727
									CHANNELS 3 Xrotation Yrotation Zrotation
									JOINT LeftHandThumb2
									{
										OFFSET 3.101337 -1.790558 1.790558
										CHANNELS 3 Xrotation Yrotation Zrotation
										JOINT LeftHandThumb3
										{
											OFFSET 3.058640 -1.765907 1.765906
											CHANNELS 3 Xrotation Yrotation Zrotation
											End Site
											{
												OFFSET -0.415260 3.926476 -0.049563
											}
										}
									}
								}
								JOINT LeftHandIndex1
								{
									OFFSET 11.334419 -0.901459 3.706815
									CHANNELS 3 Xrotation Yrotation Zrotation
									JOINT LeftHandIndex2
									{
										OFFSET 3.283112 0.000000 0.000000
										CHANNELS 3 Xrotation Yrotation Zrotation
										JOINT LeftHandIndex3
										{
											OFFSET 3.323853 0.000000 0.000000
											CHANNELS 3 Xrotation Yrotation Zrotation
											End Site
											{
												OFFSET -1.135597 3.097809 0.402452
											}
										}
									}
								}
								JOINT LeftHandMiddle1
								{
									OFFSET 11.335861 0.000000 0.000000
									CHANNELS 3 Xrotation Yrotation Zrotation
									JOINT LeftHandMiddle2
									{
										OFFSET 3.410492 0.000000 0.000000
										CHANNELS 3 Xrotation Yrotation Zrotation
										JOINT LeftHandMiddle3
										{
											OFFSET 3.312172 0.000000 0.000000
											CHANNELS 3 Xrotation Yrotation Zrotation
											End Site
											{
												OFFSET -1.150200 3.080154 0.400270
											}
										}
									}
								}
								JOINT LeftHandRing1
								{
									OFFSET 11.514786 -0.013176 -3.003090
									CHANNELS 3 Xrotation Yrotation Zrotation
									JOINT LeftHandRing2
									{
										OFFSET 3.053307 0.000000 0.000000
										CHANNELS 3 Xrotation Yrotation Zrotation
										JOINT LeftHandRing3
										{
											OFFSET 3.295807 0.000000 0.000000
											CHANNELS 3 Xrotation Yrotation Zrotation
											End Site
											{
												OFFSET -1.281006 3.013344 0.375733
											}
										}
									}
								}
								JOINT LeftHandPinky1
								{
									OFFSET 10.518692 -0.960396 -5.730441
									CHANNELS 3 Xrotation Yrotation Zrotation
									JOINT LeftHandPinky2
									{
										OFFSET 2.861649 0.000000 0.000000
										CHANNELS 3 Xrotation Yrotation Zrotation
										JOINT LeftHandPinky3
										{
											OFFSET 2.863380 0.000000 0.000000
											CHANNELS 3 Xrotation Yrotation Zrotation
											End Site
											{
												OFFSET -0.843597 2.711159 0.369971
											}
										}
									}
								}
							}
							JOINT LSleeve
							{
								OFFSET 6.676277 -0.344902 -1.011730
								CHANNELS 3 Xrotation Yrotation Zrotation
								End Site
								{
									OFFSET 0.000000 14.885353 0.000000
								}
							}
						}
					}
				}
				JOINT RightShoulder
				{
					OFFSET -6.197800 13.665199 -4.064700
					CHANNELS 3 Xrotation Yrotation Zrotation
					JOINT RightArm
					{
						OFFSET -7.778100 -0.187103 -1.709300
						CHANNELS 3 Xrotation Yrotation Zrotation
						JOINT RightForeArm
						{
							OFFSET -22.049376 0.000000 0.000000
							CHANNELS 3 Xrotation Yrotation Zrotation
							JOINT RightHand
							{
								OFFSET -23.009392 0.000000 0.000000
								CHANNELS 3 Xrotation Yrotation Zrotation
								JOINT RightHandThumb1
								{
									OFFSET -3.507191 -2.063065 3.133727
									CHANNELS 3 Xrotation Yrotation Zrotation
									JOINT RightHandThumb2
									{
										OFFSET -3.101337 -1.790558 1.790558
										CHANNELS 3 Xrotation Yrotation Zrotation
										JOINT RightHandThumb3
										{
											OFFSET -3.058640 -1.765907 1.765906
											CHANNELS 3 Xrotation Yrotation Zrotation
											End Site
											{
												OFFSET 0.415260 3.926476 -0.049563
											}
										}
									}
								}
								JOINT RightHandIndex1
								{
									OFFSET -11.334419 -0.901459 3.706815
									CHANNELS 3 Xrotation Yrotation Zrotation
									JOINT RightHandIndex2
									{
										OFFSET -3.283112 0.000000 0.000000
										CHANNELS 3 Xrotation Yrotation Zrotation
										JOINT RightHandIndex3
										{
											OFFSET -3.323853 0.000000 0.000000
											CHANNELS 3 Xrotation Yrotation Zrotation
											End Site
											{
												OFFSET 1.135597 3.097809 0.402452
											}
										}
									}
								}
								JOINT RightHandMiddle1
								{
									OFFSET -11.335861 0.000000 0.000000
									CHANNELS 3 Xrotation Yrotation Zrotation
									JOINT RightHandMiddle2
									{
										OFFSET -3.410492 0.000000 0.000000
										CHANNELS 3 Xrotation Yrotation Zrotation
										JOINT RightHandMiddle3
										{
											OFFSET -3.312172 0.000000 0.000000
											CHANNELS 3 Xrotation Yrotation Zrotation
											End Site
											{
												OFFSET 1.150200 3.080154 0.400270
											}
										}
									}
								}
								JOINT RightHandRing1
								{
									OFFSET -11.514786 -0.013176 -3.003090
									CHANNELS 3 Xrotation Yrotation Zrotation
									JOINT RightHandRing2
									{
										OFFSET -3.053307 0.000000 0.000000
										CHANNELS 3 Xrotation Yrotation Zrotation
										JOINT RightHandRing3
										{
											OFFSET -3.295807 0.000000 0.000000
											CHANNELS 3 Xrotation Yrotation Zrotation
											End Site
											{
												OFFSET 1.281006 3.013344 0.375733
											}
										}
									}
								}
								JOINT RightHandPinky1
								{
									OFFSET -10.518692 -0.960396 -5.730441
									CHANNELS 3 Xrotation Yrotation Zrotation
									JOINT RightHandPinky2
									{
										OFFSET -2.861649 0.000000 0.000000
										CHANNELS 3 Xrotation Yrotation Zrotation
										JOINT RightHandPinky3
										{
											OFFSET -2.863380 0.000000 0.000000
											CHANNELS 3 Xrotation Yrotation Zrotation
											End Site
											{
												OFFSET 0.843597 2.711159 0.369971
											}
										}
									}
								}
							}
							JOINT RSleeve
							{
								OFFSET -6.676277 -0.344902 -1.011730
								CHANNELS 3 Xrotation Yrotation Zrotation
								End Site
								{
									OFFSET 0.000000 14.885353 0.000000
								}
							}
						}
					}
				}
				JOINT Backpack
				{
					OFFSET 0.000000 -2.471497 36.677502
					CHANNELS 3 Xrotation Yrotation Zrotation
					End Site
					{
						OFFSET 0.000000 20.427315 0.000000
					}
				}
				JOINT Hood
				{
					OFFSET 0.000000 18.754097 -10.431000
					CHANNELS 3 Xrotation Yrotation Zrotation
					JOINT Hood1
					{
						OFFSET 0.000000 -5.011002 -7.685901
						CHANNELS 3 Xrotation Yrotation Zrotation
						End Site
						{
							OFFSET 0.000000 9.175140 0.000000
						}
					}
				}
				JOINT LHoodieString
				{
					OFFSET 5.250500 16.397697 3.089900
					CHANNELS 3 Xrotation Yrotation Zrotation
					JOINT LHoodieString1
					{
						OFFSET 0.257700 -6.364304 3.694600
						CHANNELS 3 Xrotation Yrotation Zrotation
						JOINT LHoodieString2
						{
							OFFSET 0.000000 -9.643799 2.679100
							CHANNELS 3 Xrotation Yrotation Zrotation
							End Site
							{
								OFFSET 0.000000 10.009018 0.000000
							}
						}
					}
				}
				JOINT RHoodieString
				{
					OFFSET -5.250500 16.397697 3.089900
					CHANNELS 3 Xrotation Yrotation Zrotation
					JOINT RHoodieString1
					{
						OFFSET -0.257700 -6.364304 3.694600
						CHANNELS 3 Xrotation Yrotation Zrotation
						JOINT RHoodieString2
						{
							OFFSET 0.000000 -9.643799 2.679100
							CHANNELS 3 Xrotation Yrotation Zrotation
							End Site
							{
								OFFSET 0.000000 10.009018 0.000000
							}
						}
					}
				}
			}
			JOINT LBackpack_Strap
			{
				OFFSET 15.223200 -7.719803 -6.610900
				CHANNELS 3 Xrotation Yrotation Zrotation
				End Site
				{
					OFFSET 0.000000 16.040596 0.000000
				}
			}
			JOINT RBackpack_Strap
			{
				OFFSET -15.223000 -7.719803 -6.610900
				CHANNELS 3 Xrotation Yrotation Zrotation
				End Site
				{
					OFFSET 0.000000 16.040596 0.000000
				}
			}
		}
	}
	JOINT BoyFacialAnim_Joint
	{
		OFFSET 1.000000 -82.208099 -1.550900
		CHANNELS 3 Xrotation Yrotation Zrotation
		End Site
		{
			OFFSET 0.000000 30.012791 0.000000
		}
	}
}
MOTION
Frames: 4
Frame Time: 0.016667
-102.822556 32.245560 1.783090 4.350139 1.670154 -43.078686 -0.000000 -0.000000 -0.000001 -110.468768 -2.062008 8.976352 27.007705 -2.090106 3.101298 22.128006 -14.803745 37.847584 -0.000003 -0.000001 0.000001 -0.000003 -0.000001 0.000001 0.000001 0.000001 0.000001 -107.540386 -15.024475 -29.268218 128.114678 8.575834 0.277275 9.813204 30.039107 2.586995 0.000001 -0.000001 0.000000 0.000001 -0.000001 0.000000 0.000003 -0.000000 -0.000000 26.963425 -1.318062 -11.000339 4.579534 1.205239 -2.831986 4.490625 1.286408 -2.943293 -2.042151 1.139530 0.937738 -3.993391 18.457114 0.270725 -0.000000 -0.000000 -0.000000 -0.000000 -0.000000 -0.000000 -0.000000 -0.000000 -0.000000 -1.373410 -20.809899 -17.189983 -48.855322 35.869087 -5.133200 0.000010 -67.519562 0.000010 -8.667160 25.097325 88.863520 -18.674859 -12.715918 12.000661 5.781753 26.667873 7.360258 -0.000001 0.000002 0.000002 -0.114406 -6.949170 -4.727150 0.000002 0.000002 -0.000005 0.000000 0.000000 -0.000002 0.098868 -2.457608 0.172473 0.069073 0.897936 -8.797573 0.000000 0.000002 -0.000001 0.130751 1.053424 3.316421 0.099480 1.076181 -10.562558 -0.000001 0.000003 -0.000002 -1.043214 17.733025 -1.993051 0.000108 0.035388 -0.345395 -0.000001 -0.000001 0.000001 -0.000001 0.000003 0.000001 0.401278 16.298366 -0.998252 -40.005234 -32.703957 -10.775252 -0.000005 46.721537 0.000015 -50.663881 -2.035154 11.091336 -36.432844 17.171394 -23.039148 7.506153 -18.062835 -3.520390 0.000001 0.000003 -0.000001 0.815364 4.038544 -1.787527 -0.000002 -0.000006 0.000004 -0.000002 0.000000 0.000004 0.053658 -1.961531 -1.170900 -0.000000 -0.001811 0.022154 0.000001 -0.000004 0.000001 0.143759 -11.067584 0.271837 0.000005 0.000007 0.000059 -0.000001 -0.000004 -0.000002 -0.350038 -18.063108 -1.651662 0.001507 -0.118461 1.454569 -0.000000 0.000003 -0.000003 0.000000 -0.000003 -0.000002 0.000002 0.000001 0.000001 0.000002 0.000001 0.000001 0.000002 0.000001 0.000001 0.000002 0.000001 0.000001 0.000002 0.000001 -0.000000 -0.000001 0.000002 0.000001 0.000002 0.000001 0.000001 0.000002 0.000001 -0.000000 -0.000001 0.000002 0.000001 0.000003 0.000001 0.000002 0.000003 0.000001 0.000002 -0.000000 -0.000000 -0.000001 
-102.230530 33.199207 0.795266 4.109922 1.422099 -43.961628 -0.000000 0.000000 0.000002 -107.915056 -1.747514 9.494164 22.354009 -2.207837 2.906239 26.452074 -13.285358 36.543933 -0.000002 -0.000000 0.000002 -0.000002 -0.000000 0.000002 0.000001 0.000001 0.000002 -105.607313 -16.850031 -27.968318 125.319286 8.270688 0.129928 8.613044 29.969883 4.251045 0.000002 0.000001 -0.000000 0.000002 0.000001 -0.000000 -0.000001 0.000001 0.000001 26.462347 -1.944107 -11.577005 4.544305 1.067057 -3.000547 4.469499 1.152596 -3.102251 -2.049342 1.250607 0.923232 -3.430761 19.437310 0.140220 -0.000000 0.000003 0.000001 -0.000000 0.000003 0.000001 -0.000000 0.000003 0.000001 -0.738568 -20.006915 -16.433092 -50.129248 35.122260 -5.603052 -0.000002 -67.864281 0.000011 -7.308400 26.200073 89.911688 -18.673705 -12.714350 12.002640 5.779701 26.667109 7.363961 -0.000001 0.000001 0.000001 -0.114871 -6.948372 -4.729062 -0.000000 -0.000006 -0.000003 -0.000001 -0.000001 -0.000002 0.098909 -2.457257 0.173010 0.068627 0.895026 -8.768866 -0.000002 -0.000000 0.000000 0.130720 1.054176 3.317223 0.098831 1.072694 -10.528042 -0.000001 -0.000001 -0.000000 -1.043677 17.733748 -1.992109 0.000111 0.035300 -0.344528 -0.000000 -0.000001 0.000001 0.000001 0.000001 -0.000001 0.572100 17.177625 -1.647726 -40.220689 -36.620551 -13.906567 0.000007 47.792849 -0.000021 -49.852673 -3.546368 10.728630 -36.512566 17.028128 -23.229344 7.528394 -18.244748 -3.533565 0.000000 -0.000000 0.000001 0.824671 4.106025 -1.666732 -0.000003 -0.000009 0.000048 0.000004 -0.000002 0.000002 0.055109 -1.872157 -1.095904 -0.000001 -0.001848 0.022654 -0.000001 -0.000000 0.000003 0.147349 -10.931692 0.311341 -0.000010 -0.000005 0.000041 -0.000000 -0.000001 0.000002 -0.366967 -18.002627 -1.683534 0.001718 -0.126639 1.554741 0.000002 0.000001 -0.000005 0.000001 -0.000000 0.000000 -0.000001 0.000000 -0.000002 -0.000001 0.000000 -0.000002 -0.000001 0.000000 -0.000002 -0.000001 0.000000 -0.000002 -0.000001 0.000000 -0.000003 -0.000001 -0.000001 -0.000001 -0.000001 0.000000 -0.000002 -0.000001 0.000000 -0.000003 -0.000001 -0.000001 -0.000001 -0.000003 0.000000 -0.000001 -0.000003 0.000000 -0.000001 -0.000000 0.000000 0.000002 
-101.703804 34.323238 -0.039813 4.726130 1.223533 -44.805153 -0.000000 -0.000000 -0.000000 -108.620287 -1.855395 9.146281 24.860253 -1.218731 2.716890 25.431371 -12.825914 37.036219 0.000001 0.000001 0.000003 0.000001 0.000001 0.000003 0.000001 -0.000000 0.000000 -103.942768 -18.562882 -26.693004 122.600748 8.157017 0.045606 6.717611 29.881490 5.852713 0.000001 -0.000001 0.000000 0.000001 -0.000001 0.000000 0.000000 -0.000000 0.000000 25.930451 -2.721629 -11.843536 4.488209 0.843237 -3.085112 4.437025 0.931093 -3.173847 -2.023573 1.363336 0.939934 -3.072401 20.274377 0.360039 0.000001 -0.000005 -0.000002 0.000001 -0.000005 -0.000002 0.000001 -0.000005 -0.000002 -0.122288 -19.220883 -15.638244 -51.499442 33.851630 -6.175593 0.000010 -67.064944 -0.000001 -6.088715 26.491498 90.582351 -18.672550 -12.713401 12.004488 5.777705 26.666341 7.367546 -0.000000 0.000001 -0.000001 -0.115385 -6.947556 -4.731092 -0.000000 -0.000002 -0.000000 -0.000001 -0.000001 -0.000004 0.098957 -2.456930 0.173599 0.068518 0.894354 -8.762165 -0.000000 -0.000001 0.000002 0.130690 1.054928 3.318096 0.098681 1.071870 -10.519962 -0.000001 0.000003 0.000000 -1.044100 17.734287 -1.991129 0.000105 0.035237 -0.343835 -0.000000 0.000004 0.000000 -0.000001 0.000003 0.000000 0.605462 17.139989 -2.151149 -40.578489 -39.839308 -15.876109 -0.000014 48.762445 0.000021 -48.772475 -4.582346 9.448639 -36.561975 16.901342 -23.361327 7.551349 -18.432396 -3.547091 -0.000001 0.000003 0.000000 0.833851 4.174744 -1.543926 -0.000003 -0.000004 0.000041 -0.000001 0.000000 0.000002 0.056357 -1.781230 -1.019677 -0.000006 -0.001896 0.023242 -0.000003 -0.000001 -0.000000 0.150834 -10.793517 0.351484 -0.000006 0.000018 0.000001 -0.000003 0.000000 0.000002 -0.384105 -17.941094 -1.715912 0.001955 -0.134941 1.656608 -0.000002 0.000000 0.000002 -0.000000 -0.000000 0.000000 -0.000001 0.000001 0.000001 -0.000001 0.000001 0.000001 -0.000001 0.000001 0.000001 -0.000001 0.000001 0.000001 -0.000001 0.000001 -0.000000 -0.000000 0.000000 -0.000001 -0.000001 0.000001 0.000001 -0.000001 0.000001 -0.000000 -0.000000 0.000000 -0.000001 -0.000001 0.000001 -0.000000 -0.000001 0.000001 -0.000000 -0.000000 -0.000000 -0.000000 
-101.222061 35.682751 -0.798348 5.748108 0.999730 -45.932230 -0.000000 -0.000000 0.000003 -111.616151 -2.434619 8.684784 32.984602 0.260495 1.926843 20.367184 -13.050218 39.596085 0.000001 -0.000000 -0.000000 0.000001 -0.000000 -0.000000 -0.000002 -0.000003 -0.000000 -102.161455 -20.680355 -25.223078 119.609617 8.166527 0.046628 4.590772 29.782534 7.215033 -0.000001 -0.000000 0.000000 -0.000001 -0.000000 0.000000 0.000000 -0.000000 0.000002 25.489487 -3.591572 -11.818030 4.429973 0.562700 -3.087443 4.399102 0.647807 -3.172090 -1.978521 1.469748 0.973260 -2.886841 20.911703 0.815778 -0.000000 0.000002 -0.000001 -0.000000 0.000002 -0.000001 -0.000000 0.000002 -0.000001 0.465877 -18.467173 -14.809588 -53.117333 32.371033 -6.476313 -0.000007 -65.498242 -0.000000 -5.129261 26.194788 91.077239 -18.671405 -12.712507 12.006312 5.775808 26.665620 7.371039 -0.000001 0.000003 0.000001 -0.115935 -6.946749 -4.733157 -0.000002 0.000001 0.000000 -0.000002 0.000002 -0.000005 0.099001 -2.456620 0.174213 0.068643 0.895135 -8.769935 0.000001 0.000000 0.000002 0.130661 1.055646 3.318952 0.098853 1.072816 -10.529234 -0.000001 0.000002 -0.000000 -1.044475 17.734525 -1.990189 0.000106 0.035169 -0.343283 0.000001 -0.000002 -0.000001 -0.000003 0.000002 0.000001 0.420655 16.309587 -2.316467 -40.918567 -42.271149 -17.103685 0.000003 49.709799 0.000005 -47.434769 -5.281591 7.361204 -36.582159 16.789744 -23.436776 7.574912 -18.625460 -3.560990 -0.000000 0.000000 -0.000000 0.842831 4.244608 -1.419228 0.000005 0.000006 0.000083 -0.000003 -0.000001 0.000005 0.057360 -1.688883 -0.942280 0.000000 -0.001927 0.023974 -0.000003 0.000003 -0.000005 0.154189 -10.653124 0.392197 -0.000002 -0.000002 0.000003 -0.000002 -0.000004 0.000003 -0.401456 -17.878575 -1.748770 0.002203 -0.143351 1.760090 -0.000000 0.000000 0.000000 0.000000 -0.000002 0.000001 -0.000000 -0.000001 0.000001 -0.000000 -0.000001 0.000001 -0.000000 -0.000001 0.000001 -0.000000 -0.000001 0.000001 -0.000000 -0.000001 -0.000000 0.000001 0.000000 -0.000001 -0.000000 -0.000001 0.000001 -0.000000 -0.000001 -0.000000 0.000001 0.000000 -0.000001 -0.000001 -0.000001 0.000001 -0.000001 -0.000001 0.000001 -0.000000 -0.000000 0.000003 
